<?xml version="1.0" standalone="no"?>
<!DOCTYPE svg PUBLIC "-//W3C//DTD SVG 20010904//EN"
 "http://www.w3.org/TR/2001/REC-SVG-20010904/DTD/svg10.dtd">
<svg version="1.0" xmlns="http://www.w3.org/2000/svg"
 width="16.000000pt" height="16.000000pt" viewBox="0 0 16.000000 16.000000"
 preserveAspectRatio="xMidYMid meet">

<g transform="translate(0.000000,16.000000) scale(0.100000,-0.100000)"
fill="#000000" stroke="none">
<path d="M128 143 c7 -3 16 -2 19 1 4 3 -2 6 -13 5 -11 0 -14 -3 -6 -6z"/>
<path d="M92 108 c-12 -12 -22 -17 -22 -10 0 7 -5 12 -11 12 -8 0 -8 -5 1 -15
10 -12 10 -15 -1 -15 -10 -1 -8 -5 5 -15 11 -8 15 -19 10 -27 -6 -10 -4 -10 9
1 22 17 22 31 0 31 -13 0 -10 7 12 30 33 34 31 41 -3 8z"/>
<path d="M23 35 c0 -7 6 -11 14 -8 16 6 16 10 0 16 -8 3 -14 -1 -14 -8z"/>
</g>
</svg>
