<?xml version="1.0" standalone="no"?>
<!DOCTYPE svg PUBLIC "-//W3C//DTD SVG 20010904//EN"
 "http://www.w3.org/TR/2001/REC-SVG-20010904/DTD/svg10.dtd">
<svg version="1.0" xmlns="http://www.w3.org/2000/svg"
 width="16.000000pt" height="16.000000pt" viewBox="0 0 16.000000 16.000000"
 preserveAspectRatio="xMidYMid meet">

<g transform="translate(0.000000,16.000000) scale(0.100000,-0.100000)"
fill="#000000" stroke="none">
<path d="M105 120 c-21 -22 -36 -43 -32 -47 8 -7 87 65 87 79 0 17 -17 7 -55
-32z m5 -14 c0 -2 -8 -10 -17 -17 -16 -13 -17 -12 -4 4 13 16 21 21 21 13z"/>
<path d="M53 97 c-4 -8 -16 -16 -26 -20 -28 -10 -32 -36 -9 -59 23 -23 49 -19
59 9 4 10 14 24 22 31 14 11 14 11 -2 6 -10 -4 -23 -17 -28 -30 -4 -13 -15
-24 -23 -24 -10 0 -13 6 -9 17 5 12 2 15 -10 10 -11 -4 -17 -1 -17 9 0 8 11
19 24 23 13 5 26 17 29 25 8 19 1 21 -10 3z"/>
</g>
</svg>
